<svg width="32" height="32" viewBox="0 0 32 32" fill="none" xmlns="http://www.w3.org/2000/svg">
<path d="M25.3233 22.6577H27.9889C28.7886 22.6577 29.3217 22.1246 29.3217 21.3249V17.3265C29.3217 16.127 28.3887 15.0607 27.3225 14.7942C24.9234 14.1278 21.3248 13.3281 21.3248 13.3281C21.3248 13.3281 19.5922 11.4621 18.3927 10.2626C17.7263 9.72949 16.9266 9.32965 15.9936 9.32965H6.66395C5.86426 9.32965 5.19786 9.86277 4.79802 10.5292L2.93209 14.3943C2.7556 14.9091 2.66553 15.4495 2.66553 15.9937V21.3249C2.66553 22.1246 3.19865 22.6577 3.99833 22.6577H6.66395" stroke="#D7B56E" stroke-width="2.66561" stroke-linecap="round" stroke-linejoin="round"/>
<path d="M9.32968 25.3233C10.8019 25.3233 11.9953 24.1299 11.9953 22.6577C11.9953 21.1855 10.8019 19.9921 9.32968 19.9921C7.8575 19.9921 6.66406 21.1855 6.66406 22.6577C6.66406 24.1299 7.8575 25.3233 9.32968 25.3233Z" stroke="#D7B56E" stroke-width="2.66561" stroke-linecap="round" stroke-linejoin="round"/>
<path d="M11.9951 22.6577H19.992" stroke="#D7B56E" stroke-width="2.66561" stroke-linecap="round" stroke-linejoin="round"/>
<path d="M22.6578 25.3233C24.13 25.3233 25.3234 24.1299 25.3234 22.6577C25.3234 21.1855 24.13 19.9921 22.6578 19.9921C21.1856 19.9921 19.9922 21.1855 19.9922 22.6577C19.9922 24.1299 21.1856 25.3233 22.6578 25.3233Z" stroke="#D7B56E" stroke-width="2.66561" stroke-linecap="round" stroke-linejoin="round"/>
</svg>
