<svg width="24" height="24" viewBox="0 0 24 24" fill="none" xmlns="http://www.w3.org/2000/svg">
<path d="M2.49882 16.9933C1.80052 13.6979 1.80052 10.2927 2.49882 6.99723C2.59058 6.66257 2.76786 6.35756 3.01323 6.11219C3.2586 5.86682 3.56361 5.68954 3.89827 5.59778C9.2596 4.70959 14.7305 4.70959 20.0919 5.59778C20.4265 5.68954 20.7316 5.86682 20.9769 6.11219C21.2223 6.35756 21.3996 6.66257 21.4913 6.99723C22.1896 10.2927 22.1896 13.6979 21.4913 16.9933C21.3996 17.3279 21.2223 17.633 20.9769 17.8783C20.7316 18.1237 20.4265 18.301 20.0919 18.3927C14.7306 19.2811 9.25959 19.2811 3.89827 18.3927C3.56361 18.301 3.2586 18.1237 3.01323 17.8783C2.76786 17.633 2.59058 17.3279 2.49882 16.9933Z" stroke="#BCBCBC" stroke-width="1.99921" stroke-linecap="round" stroke-linejoin="round"/>
<path d="M9.99609 14.9942L14.9941 11.9954L9.99609 8.99658V14.9942Z" stroke="#BCBCBC" stroke-width="1.99921" stroke-linecap="round" stroke-linejoin="round"/>
</svg>
