<svg width="32" height="32" viewBox="0 0 32 32" fill="none" xmlns="http://www.w3.org/2000/svg">
<path d="M23.7241 25.5899L21.325 14.6609L25.9899 9.99607C27.9891 7.99686 28.6555 5.33124 27.9891 3.99844C26.6563 3.33203 23.9906 3.99844 21.9914 5.99765L17.3266 10.6625L6.39759 8.26342C5.73118 8.13014 5.19806 8.3967 4.9315 8.92982L4.53166 9.59623C4.2651 10.2626 4.39838 10.929 4.9315 11.3289L11.9954 15.9937L9.32976 19.9921H5.33134L3.99854 21.3249L7.99696 23.9905L10.6626 27.989L11.9954 26.6562V22.6577L15.9938 19.9921L20.6586 27.056C21.0585 27.5891 21.7249 27.7224 22.3913 27.4558L23.0577 27.1893C23.5908 26.7894 23.8574 26.2563 23.7241 25.5899Z" stroke="#D7B56E" stroke-width="2.66561" stroke-linecap="round" stroke-linejoin="round"/>
</svg>
